<svg fill="none" height="52" viewBox="0 0 240 52" width="240" xmlns="http://www.w3.org/2000/svg"><g fill="#000"><path d="m25.9326 39.4124c-1.4261.9524-3.6141 1.6899-6.0903 1.7387-2.4322.0635-4.5421-.6886-5.9486-2.0171-1.8852-1.7924-2.8523-4.8839-2.8523-9.1476 0-4.1562 1.1868-11.1696 8.9572-11.7117 1.0549-.0781 3.8827-.2979 5.934-.3517zm0-38.612458v8.585968h-5.4896c-16.25374 0-19.643195 12.14149-19.643195 20.88859 0 6.4029 1.953575 11.9608 5.460255 15.6531 3.02316 3.1501 7.07194 4.8351 11.72634 4.8351 3.116 0 5.7435-.5812 7.9462-1.7436l.0586.8791h10.7251v-49.098258z"/><path d="m55.0652 23.8864c1.094-3.8828 3.7801-6.3736 8.0829-6.3736 4.0048 0 6.7398 2.8083 7.0671 6.3736zm25.6846.1807c-.4102-4.5861-2.0952-8.4688-4.84-11.1696-3.072-3.03296-7.3796-4.58116-12.7617-4.58116-6.2075 0-11.3161 2.30036-14.7935 6.64216-3.0964 3.8534-4.8009 9.2453-4.8009 15.194 0 9.929 5.6165 20.5858 21.3575 20.5858 6.0317 0 11.9217-1.8706 15.3014-3.5555v-9.9437c-1.8803 1.0402-7.6385 4.1513-15.5016 4.0097-5.768-.0977-8.8742-3.199-9.8461-8.6641h25.9875l.0147-.4005c.0586-3.663-.0147-6.7545-.1173-8.1171z"/><path d="m109.018 8.4142c-3.487 0-7.335 1.3089-8.82 1.8608l-.049-.88889h-10.7398v40.51229h10.7888v-30.3439c2.329-1.4554 5.939-2.0659 8.859-1.3822 2.892.6789 4.313 2.5104 4.313 7.7557v23.9704h10.759v-25.5625c0-10.7105-4.933-15.9217-15.111-15.9217z"/><path d="m228.421 9.37637v30.34393c-2.295 1.4701-5.929 2.0708-8.85 1.4017-2.886-.6789-4.302-2.5006-4.302-7.7752v-23.97043h-10.779v25.57233c0 10.7056 4.947 15.9119 15.111 15.9119 3.492 0 7.355-1.2943 8.82-1.8608l.064.8889h10.715v-40.51233z"/><path d="m144.017.800179h-10.774v35.159521c0 4.8351.84 8.2246 2.632 10.6177 2.11 2.8327 5.558 4.1953 10.525 4.1953 3.99 0 7.834-.8742 10.08-1.5824v-9.6995c-1.391.3516-5.66 1.2698-8.131 1.2698-1.568 0-2.672-.3272-3.351-1.0061-.981-1.0012-.981-2.7057-.981-4.3467v-17.1133c4.224 0 9.514.293 12.463.6105v-9.51885h-12.463z"/><path d="m183.777 24.5801c-2.53-.4591-5.524-.9914-7.253-1.9438-.84-.4591-1.284-1.1086-1.274-1.8266.029-.7033.512-1.3821 1.23-1.7338 1.568-.8693 4.415-1.2893 8.743-.4981 4.156.7472 8.766 2.3491 10.192 2.9499v-9.7777c-4.981-2.47127-9.416-3.43341-14.407-3.36015-4.635.08791-8.64 1.29913-11.59 3.49205-3.106 2.3491-4.854 5.6946-5.03 9.6946-.318 6.7252 3.902 10.7496 13.626 12.6397 2.022.4004 4.967 1.0012 6.217 1.5237 1.26.4982 2.007 1.3285 2.007 2.2711.01.9035-.63 1.7533-1.641 2.1831-1.821.7619-4.786.6496-6.671.4493-5.568-.5616-10.891-2.5299-12.82-3.3845v10.0413c3.291 1.6704 8.483 3.5995 14.642 3.5116 7.052-.1416 15.804-2.2417 17.382-11.5408.605-3.4529-.01-6.5738-1.778-9.0353-2.159-2.9743-5.485-4.5127-11.575-5.6556z"/></g></svg>