<svg fill="none" height="21" viewBox="0 0 240 21" width="240" xmlns="http://www.w3.org/2000/svg"><g clip-rule="evenodd" fill="#000" fill-rule="evenodd"><path d="m4.34286.91439-1.25715 2.62857-1.37142-2.62857c-.11429-.228571-.34286-.342857-.57143-.342857h-1.14286v.228572c.114286 0 .228571 0 .228571.228575v3.65714c0 .11428-.114285.22857-.228571.22857v.22857h1.6v-.22857c-.34286 0-.45714 0-.45714-.22857v-2.62857h.11428l1.71429 3.2h.11428l1.71429-3.2h.11429v2.62857c0 .11428-.11429.22857-.34286.22857v.22857h1.6v-.22857c-.11429 0-.34286-.11429-.34286-.22857v-3.65714c0-.11429.11429-.228575.34286-.228575v-.228572h-1.14286c-.34286 0-.57143.114286-.68571.342857z"/><path d="m13.1429 4.3428c0 .57143-.4572 1.14286-1.1429 1.14286h-2.9714c-.57143 0-1.14286-.45714-1.14286-1.14286v-2.97143c0-.571426.45715-1.142854 1.14286-1.142854h2.9714c.5715 0 1.1429.457142 1.1429 1.142854z"/><path d="m13.1429 11.4285c0 .5714-.4572 1.1429-1.1429 1.1429h-2.9714c-.57143 0-1.14286-.4572-1.14286-1.1429v-2.97143c0-.57143.45715-1.14286 1.14286-1.14286h2.9714c.5715 0 1.1429.45714 1.1429 1.14286z"/><path d="m20.3431 4.3428c0 .57143-.4572 1.14286-1.1429 1.14286h-2.9714c-.5714 0-1.1429-.45714-1.1429-1.14286v-2.97143c0-.571426.4572-1.142854 1.1429-1.142854h2.9714c.5715 0 1.1429.457142 1.1429 1.142854z"/><path d="m5.82843 11.4285c0 .5714-.45714 1.1429-1.14286 1.1429h-2.97142c-.57143 0-1.142861-.4572-1.142861-1.1429v-2.97143c0-.57143.457141-1.14286 1.142861-1.14286h2.97142c.57143 0 1.14286.45714 1.14286 1.14286z"/><path d="m20.3431 11.4285c0 .5714-.4572 1.1429-1.1429 1.1429h-2.9714c-.5714 0-1.1429-.4572-1.1429-1.1429v-2.97143c0-.57143.4572-1.14286 1.1429-1.14286h2.9714c.5715 0 1.1429.45714 1.1429 1.14286z"/><path d="m20.3431 18.5142c0 .5714-.4572 1.1428-1.1429 1.1428h-2.9714c-.5714 0-1.1429-.4571-1.1429-1.1428v-2.9714c0-.5715.4572-1.1429 1.1429-1.1429h2.9714c.5715 0 1.1429.4571 1.1429 1.1429z"/><path d="m13.1429 18.5142c0 .5714-.4572 1.1428-1.1429 1.1428h-2.9714c-.57143 0-1.14286-.4571-1.14286-1.1428v-2.9714c0-.5715.45715-1.1429 1.14286-1.1429h2.9714c.5715 0 1.1429.4571 1.1429 1.1429z"/><path d="m5.82843 18.5142c0 .5714-.45714 1.1428-1.14286 1.1428h-2.97142c-.57143 0-1.142861-.4571-1.142861-1.1428v-2.9714c0-.5715.457141-1.1429 1.142861-1.1429h2.97142c.57143 0 1.14286.4571 1.14286 1.1429z"/><path d="m50.3998.228516v1.028574c-.6857 0-1.1429.22857-1.1429.91428v15.20003c0 .6857.5714 1.0285 1.1429 1.0285v1.0286h-6.7429v-1.0286c1.0286 0 1.6-.3428 1.6-1.0285v-10.85717h-.3428l-7.2 13.14287h-.5715l-6.9714-13.25716h-.3429v11.08576c0 .6857.4572 1.0285 1.6 1.0285v1.0286h-6.5142v-1.0286c.6857 0 1.1428-.3428 1.1428-1.0285v-15.20004c0-.68572-.4571-.91429-1.1428-.91429v-1.142854h4.5714c1.1428 0 1.9428.571428 2.4 1.485714l5.6 10.74287h.2286l5.7142-10.74287c.3429-.8 1.1429-1.485714 2.2858-1.485714z"/><path d="m77.0286 9.94286c0 7.08574-5.9428 9.94284-11.6571 9.94284s-11.6571-2.8571-11.6571-9.94284c0-7.08572 5.9428-9.94286 11.6571-9.94286s11.6571 2.85714 11.6571 9.94286zm-19.2 0c0 4.45714 3.4286 6.40004 7.4286 6.40004s7.4286-1.9429 7.4286-6.40004c0-4.45715-3.4286-6.4-7.4286-6.4s-7.4286 1.94285-7.4286 6.4z"/><path d="m84.1142.228516c.8 0 1.4858.685714 1.4858 1.485714v14.39997h10.1714c1.1428 0 2.0571-.5714 2.0571-1.4857h1.0286v4.9143h-18.6286v-1.0286c.6857 0 1.1429-.3428 1.1429-1.0285v-15.20004c0-.68572-.5715-.91429-1.1429-.91429v-1.142854z"/><path d="m116.686 11.3142h-9.715v4.9143h10.858c1.714 0 2.171-.4571 2.171-1.2571h1.029v4.6857h-19.315v-1.0286c.686 0 1.143-.3428 1.143-1.0286v-15.31424c0-.68572-.457-.91429-1.143-.91429v-1.142854h19.2v4.457144h-1.028c0-.8-.572-1.37143-2.286-1.37143h-10.629v4.68571h9.715z"/><path d="m133.6 16.4571c1.6 0 5.943-.1142 5.943-2.4 0-2.2857-2.515-1.9428-5.029-2.2857l-1.943-.2285c-4-.5715-7.771-1.0286-7.771-5.37147 0-3.54286 2.857-6.17143 8.914-6.17143 5.257 0 9.6 2.51429 9.6 2.51429l-2.171 4.11428-.8-.22857c.114-.57143 0-1.02857-.572-1.48571-1.485-1.14286-4.8-1.71429-5.943-1.71429-2.742 0-4.914.8-4.914 2.4 0 1.37143 1.029 1.71429 2.743 1.94286l3.429.45714c4.114.57143 8.8.8 8.8 5.3714 0 5.3715-5.829 6.2857-9.943 6.2857-5.829 0-9.372-2.5142-9.372-2.5142l1.486-3.8858.8.2286c0 .5714.114 1.0286.8 1.4857 1.257.8 4.229 1.4857 5.943 1.4857z"/><path d="m152.228 10.0571 10.515-9.828584h4.914v1.028574c-.8 0-1.257.34285-1.829.91428l-6.514 6.05715 5.714 7.42858c1.486 1.9428 1.715 2.4 3.315 2.8571v1.0286h-3.772c-1.257 0-2.057-.5714-2.743-1.4857l-5.6-7.2-4 3.7714v2.7429c0 .6857.458 1.0285 1.6 1.0285v1.0286h-6.971v-1.0286c.686 0 1.143-.3428 1.143-1.0285v-15.08574c0-.68572-.457-.91429-1.143-.91429v-1.142854h3.886c.8 0 1.485.685714 1.485 1.485714z"/><path d="m176.228 17.4857c0 .6857.457 1.0285 1.143 1.0285v1.0286h-6.514v-1.0286c.686 0 1.143-.3428 1.143-1.0285v-15.20004c0-.68572-.572-.91429-1.143-.91429v-1.142854h3.886c.8 0 1.485.685714 1.485 1.485714z"/><path d="m186.172 6.05709v11.42861c0 .6857.457 1.0285 1.6 1.0285v1.0286h-6.629v-1.0286c.686 0 1.143-.3428 1.143-1.0285v-15.20004c0-.68572-.572-.91429-1.143-.91429v-1.142854h3.314c1.486 0 2.515.571428 3.429 1.485714l10.971 11.54287v-10.85716c0-.68571-.457-1.02857-1.6-1.02857v-1.142854h6.629v1.028574c-.686 0-1.143.22857-1.143.91428v15.20003c0 .6857.457 1.0285 1.143 1.0285v1.0286h-2.857c-1.372 0-2.515-.5714-3.315-1.4857z"/><path d="m222.743 11.3142h-9.714v4.9143h10.857c1.714 0 2.171-.4571 2.171-1.2571h1.029v4.6857h-19.429v-1.0286c.686 0 1.143-.3428 1.143-1.0286v-15.31424c0-.68572-.457-.91429-1.143-.91429v-1.142854h19.2v4.457144h-1.028c0-.8-.572-1.37143-2.286-1.37143h-10.629v4.68571h9.715z"/><path d="m235.428.228516c2.515 0 4.572 2.057144 4.572 4.685714s-2.057 4.68571-4.572 4.68571c-2.514 0-4.571-2.05714-4.571-4.68571s1.943-4.685714 4.571-4.685714zm0 8.457144c2.172 0 3.886-1.71429 3.886-3.88572 0-2.17142-1.714-3.88571-3.886-3.88571-2.171 0-3.885 1.71429-3.885 3.88571 0 2.17143 1.714 3.88572 3.885 3.88572zm-1.6-5.94286c0-.11428.115-.22857.229-.22857h1.828c.8 0 1.601.45714 1.601 1.48571 0 .91429-.686 1.25715-1.029 1.37143.228.45715.457 1.02857.8 1.48572.114.11428 0 .34285-.229.34285h-.457c-.114 0-.228-.11428-.228-.22857l-.686-1.6h-.914v1.6c0 .11429-.115.22857-.229.22857h-.343c-.114 0-.228-.11428-.228-.22857v-4.22857zm2.057 1.94286c.458 0 .801-.34286.801-.68572 0-.45714-.343-.8-.801-.8h-1.257v1.48572z"/></g></svg>